<svg width="470" height="130" viewBox="0 0 470 130" xmlns="http://www.w3.org/2000/svg"><title>Momentum Link Professionals horizontal</title>
<defs>
  <linearGradient id="hd-g1" x1="0" y1="0" x2="0.35" y2="1"><stop offset="0" stop-color="#EAF2FB"></stop><stop offset="0.6" stop-color="#D3E4F6"></stop><stop offset="1" stop-color="#C1D8F0"></stop></linearGradient>
  <linearGradient id="hd-g2" x1="0" y1="0" x2="0.35" y2="1"><stop offset="0" stop-color="#97C3EE"></stop><stop offset="0.6" stop-color="#7FB2E4"></stop><stop offset="1" stop-color="#6DA1D6"></stop></linearGradient>
  <linearGradient id="hd-g3" x1="0" y1="0" x2="0.35" y2="1"><stop offset="0" stop-color="#4E96E0"></stop><stop offset="0.6" stop-color="#3B87D6"></stop><stop offset="1" stop-color="#3078C4"></stop></linearGradient>
  <radialGradient id="hd-d1" cx="0.32" cy="0.28" r="0.85"><stop offset="0" stop-color="#A8CCF1"></stop><stop offset="1" stop-color="#7FB2E4"></stop></radialGradient>
  <radialGradient id="hd-d2" cx="0.32" cy="0.28" r="0.85"><stop offset="0" stop-color="#5C9CE0"></stop><stop offset="1" stop-color="#3B87D6"></stop></radialGradient>
  <filter id="hd-sh" x="-25%" y="-25%" width="150%" height="150%"><feDropShadow dx="0" dy="2" stdDeviation="2" flood-color="#000000" flood-opacity="0.35"></feDropShadow></filter>
</defs>
<g transform="translate(64, 63)" filter="url(#hd-sh)">
  <path d="M -52,-26 L -26,0 L -52,26" fill="none" stroke="url(#hd-g1)" stroke-width="7" stroke-linecap="round" stroke-linejoin="round"></path>
  <path d="M -20,-26 L 6,0 L -20,26" fill="none" stroke="url(#hd-g2)" stroke-width="7" stroke-linecap="round" stroke-linejoin="round"></path>
  <path d="M 12,-26 L 38,0 L 12,26" fill="none" stroke="url(#hd-g3)" stroke-width="7" stroke-linecap="round" stroke-linejoin="round"></path>
  <circle cx="54" cy="0" r="5" fill="url(#hd-d1)"></circle>
  <g stroke="#FFFFFF" stroke-opacity="0.32" stroke-width="1.6" fill="none" stroke-linecap="round" transform="translate(0, -1.2)">
    <path d="M -47,-21 L -28,-2"></path><path d="M -15,-21 L 4,-2"></path><path d="M 17,-21 L 36,-2"></path>
  </g>
</g>
<text x="152" y="60" font-family="Archivo, Helvetica, Arial, sans-serif" font-size="30" font-weight="600" fill="#FFFFFF" letter-spacing="4.5">MOMENTUM LINK</text>
<text x="153" y="86" font-family="Archivo, Helvetica, Arial, sans-serif" font-size="11" font-weight="600" fill="#7FB2E4" letter-spacing="7.4">PROFESSIONALS</text>
</svg>